<svg width="1200" height="1200" viewBox="0 0 1200 1200" fill="none" xmlns="http://www.w3.org/2000/svg">
<mask id="mask0_514_1621" style="mask-type:alpha" maskUnits="userSpaceOnUse" x="0" y="0" width="1197" height="1197">
<circle cx="598.033" cy="598.033" r="598.033" fill="#D9D9D9"/>
</mask>
<g mask="url(#mask0_514_1621)">
<path d="M925.883 1091.76C923.138 1093.73 920.001 1095.69 917.256 1097.65C914.118 1099.61 911.373 1101.57 908.236 1103.14C905.491 1104.71 903.138 1106.27 900.393 1107.84C900.001 1108.24 899.609 1108.24 899.216 1108.63C890.197 1114.12 880.785 1119.22 871.373 1123.92C868.628 1125.49 865.491 1127.06 862.746 1128.24C862.746 1128.24 862.354 1128.63 861.962 1128.63C858.824 1130.2 855.687 1131.76 852.55 1133.33C846.275 1136.47 839.609 1139.22 833.334 1141.96C830.197 1143.53 826.667 1144.71 823.53 1145.88C820.393 1147.06 816.864 1148.63 813.726 1149.8C810.589 1150.98 807.06 1152.55 803.922 1153.73C803.922 1153.73 803.922 1153.73 803.53 1153.73C800.393 1154.9 796.864 1156.08 793.726 1157.25C786.667 1159.61 779.216 1161.96 772.158 1164.31C769.805 1165.1 767.06 1165.88 764.707 1166.67C757.256 1169.02 749.805 1170.98 742.354 1172.55C739.609 1173.33 736.864 1173.73 733.726 1174.51C726.667 1176.08 719.216 1177.65 712.158 1179.22C710.589 1179.61 709.413 1179.61 707.844 1180C705.491 1180.39 702.746 1180.78 700.393 1181.18C696.864 1181.57 693.726 1182.35 690.197 1182.74C688.628 1183.14 687.06 1183.14 685.491 1183.53C683.53 1183.92 681.177 1184.31 678.824 1184.31C672.55 1185.1 665.883 1185.88 659.609 1186.67C657.648 1187.06 655.295 1187.06 653.334 1187.45H652.942C650.197 1187.84 647.452 1187.84 644.707 1188.24C641.962 1188.63 639.217 1188.63 636.471 1188.63C634.903 1188.63 632.942 1189.02 631.373 1189.02C628.236 1189.02 625.491 1189.41 622.746 1189.41C618.824 1189.41 615.295 1189.8 611.373 1189.8C607.452 1189.8 603.922 1189.8 600.001 1189.8C597.256 1189.8 594.511 1189.8 591.765 1189.8C426.275 1187.45 277.648 1117.25 171.373 1005.88C171.373 1005.88 171.373 1005.49 170.981 1005.49C159.216 994.902 169.413 938.431 216.864 902.745C276.471 857.647 419.217 829.412 419.217 829.412C419.217 829.412 474.511 820.392 679.609 863.137C799.609 888.235 890.981 924.706 941.962 1023.53C952.55 1043.92 963.138 1075.29 925.883 1091.76Z" fill="white"/>
<path d="M680.785 858.823C756.079 874.118 836.471 890.588 898.432 940.392C919.216 957.255 932.942 981.961 944.315 1005.88C949.805 1017.65 955.295 1029.8 959.609 1042.75C961.962 1051.37 965.491 1061.18 963.53 1071.37C963.138 1074.12 960.785 1077.65 958.824 1079.61C949.805 1088.63 940.001 1094.12 930.197 1101.18C872.55 1141.18 806.275 1169.41 737.648 1184.31C584.707 1217.65 419.216 1191.76 284.707 1111.37C240.001 1084.31 198.824 1051.37 163.53 1012.55C159.609 1007.84 159.609 1000 159.609 994.902C160.001 983.137 163.138 971.765 167.06 961.176C176.471 936.863 188.628 912.549 209.413 895.686C224.315 885.49 240.393 876.863 256.864 869.804C308.628 847.843 363.138 832.549 419.216 826.274C423.922 825.882 424.707 832.549 420.001 833.333C366.275 844.314 312.942 860.784 263.138 883.137C245.099 892.157 225.883 900 211.373 914.118C197.648 929.02 187.844 947.451 180.001 966.274C174.903 977.647 171.373 995.686 172.942 1004.71C197.648 1034.12 226.667 1060 258.04 1082.35C429.805 1202.35 690.589 1210.2 873.334 1110.2C889.805 1101.18 905.883 1090.98 921.177 1080.39C928.628 1075.29 936.471 1070.98 942.354 1065.1C942.746 1064.71 942.354 1065.1 942.354 1065.49C942.354 1065.88 941.962 1066.27 941.962 1066.27C942.354 1061.57 940.785 1055.29 938.824 1049.02C931.765 1026.27 920.393 1002.35 908.236 981.569C889.02 950.588 856.471 930.98 823.53 915.294C800.785 904.706 776.863 896.471 752.55 888.627C728.236 880.784 703.53 874.118 678.824 868.235C672.55 866.667 674.511 857.647 680.785 858.823Z" fill="black"/>
<path d="M1056.08 1334.9H64.3147C64.3147 1334.9 76.0794 1163.92 135.687 1034.12C156.864 988.235 173.334 921.568 212.158 891.372C256.864 856.863 345.099 835.294 376.472 829.019C399.609 824.313 402.746 828.627 418.825 824.313C418.825 826.274 419.217 827.843 419.217 829.804C419.217 829.804 461.57 955.686 571.766 1000.39C661.57 1036.86 714.903 1012.55 723.138 972.157C728.236 946.274 712.158 903.921 703.923 890.196C699.217 886.274 696.079 880.392 694.511 874.51L691.374 861.568C698.825 860 705.883 858.039 712.942 855.686C715.295 854.902 717.256 854.117 719.609 853.333C776.472 869.412 845.491 898.431 905.883 944.314C938.825 969.412 966.276 1034.12 1000 1143.53C1039.61 1269.41 1056.08 1334.9 1056.08 1334.9Z" fill="black"/>
<path d="M755.296 951.764C754.12 940.784 752.159 930.98 750.198 922.352C741.963 883.921 717.257 850.196 717.257 850.196C717.257 850.196 655.296 807.45 559.61 796.078C463.924 784.705 417.257 796.078 417.257 796.078C410.198 798.431 401.571 803.137 393.728 807.45C379.61 815.686 368.238 827.45 361.179 841.96C361.179 842.352 360.787 842.352 360.787 842.745C350.59 872.156 403.14 980.784 538.434 1041.57C678.041 1104.31 764.708 1030.98 755.296 951.764Z" fill="black"/>
<path d="M258.826 1563.53C253.728 1448.63 251.375 1327.45 249.807 1212.16C249.022 1167.45 247.062 1122.35 258.042 1078.43C274.905 1005.1 325.885 936.471 398.826 912.55L396.081 915.295C404.316 894.511 413.336 871.373 433.336 859.217C434.12 858.824 434.513 860.001 434.12 860.393C420.395 869.805 412.944 885.883 406.669 901.177C404.316 906.275 403.14 912.55 400.787 917.256C373.336 927.452 349.022 945.099 329.022 965.883C309.022 987.06 292.944 1012.16 282.356 1039.22C268.63 1073.33 262.748 1109.8 261.571 1146.28C260.787 1283.92 264.709 1429.41 258.826 1563.53Z" fill="white"/>
<path d="M433.334 1563.53C425.491 1491.76 420.785 1418.04 420.001 1345.88C419.217 1279.61 421.177 1211.37 429.021 1145.49C433.334 1107.06 447.06 1019.22 475.687 993.725L478.824 991.372C480.785 990.588 481.177 989.803 483.923 989.411L480.001 993.333C481.962 978.431 487.452 964.313 495.295 951.764C498.04 947.843 500.785 943.921 503.923 940C504.315 939.607 505.491 940 504.707 940.784C501.962 944.705 499.217 948.627 497.256 952.941C490.589 965.49 485.883 979.215 484.707 993.333C484.707 993.725 484.315 993.725 484.315 994.117C481.962 994.902 479.217 996.862 477.256 999.215C471.374 1005.49 467.452 1014.51 463.923 1022.35C458.432 1036.08 454.511 1050.98 451.374 1065.88C443.53 1103.92 439.217 1143.92 436.079 1182.74C431.766 1247.84 430.197 1316.86 430.197 1381.96L430.589 1418.43C430.589 1466.67 432.942 1515.29 434.119 1563.53C434.511 1563.92 433.334 1564.31 433.334 1563.53Z" fill="white"/>
<path d="M594.509 1563.53C594.902 1443.92 589.803 1323.92 589.411 1204.31C589.019 1150.2 589.019 1094.51 590.196 1040.39C593.725 1026.27 596.47 1011.37 597.647 996.471C598.039 991.765 598.039 986.667 597.647 981.569C597.647 980.784 598.823 980.784 598.823 981.569C601.96 1001.18 599.607 1021.18 595.686 1040.78C597.254 1083.53 598.823 1127.84 599.607 1171.37C602.352 1269.41 603.137 1367.45 600.784 1465.49C600.392 1484.31 599.215 1512.16 598.039 1530.98C597.254 1541.96 596.078 1552.55 595.294 1563.53C595.294 1563.92 594.902 1563.92 594.509 1563.92C594.509 1563.92 594.509 1563.53 594.509 1563.53Z" fill="white"/>
<path d="M778.04 1563.53C774.511 1472.94 772.158 1378.04 764.315 1287.84C759.609 1230.59 752.158 1174.12 741.177 1118.04C734.511 1084.31 725.883 1050.2 712.158 1018.43C709.805 1000.39 703.923 980.784 689.805 968.235C689.413 967.843 689.413 967.45 689.805 967.45C690.197 967.058 690.197 967.058 690.589 967.45C694.511 970.195 698.04 973.725 701.177 977.646C709.805 989.019 715.295 1004.71 717.256 1017.65C733.334 1048.63 742.354 1082.35 750.589 1116.08C755.687 1138.04 760.393 1161.96 763.923 1183.92C769.021 1215.29 773.726 1255.29 776.079 1287.06C778.04 1306.27 779.217 1336.47 780.393 1356.08C781.962 1402.35 782.354 1448.23 781.57 1494.51L779.609 1563.53C779.609 1563.92 779.217 1563.92 778.824 1563.92C778.432 1563.92 778.04 1563.53 778.04 1563.53Z" fill="white"/>
<path d="M925.49 1563.14C935.294 1455.69 931.372 1346.67 916.078 1240C912.156 1212.16 906.274 1183.14 899.999 1155.69C892.548 1128.63 883.529 1101.18 871.372 1076.08C862.745 1056.86 851.372 1038.43 839.999 1020.78C824.313 998.431 804.313 975.294 782.745 958.431C771.764 949.412 759.999 940.784 747.45 934.51C741.176 926.275 737.254 918.039 728.235 910.196C721.176 903.529 712.548 898.039 702.745 897.647C702.352 897.647 701.96 897.255 701.96 896.863C701.96 896.471 702.352 896.471 702.352 896.471C707.45 896.078 712.548 897.647 717.254 899.608C730.98 906.275 741.176 918.431 749.411 930.98C803.921 956.471 847.058 1008.24 875.686 1061.57C887.058 1084.31 897.254 1107.84 904.313 1132.16L910.588 1152.94C929.411 1230.59 936.862 1310.59 938.039 1390.2C938.431 1448.24 935.294 1506.27 926.274 1563.53C926.274 1563.92 925.882 1563.92 925.49 1563.92C925.49 1563.92 925.49 1563.53 925.49 1563.14Z" fill="white"/>
<path d="M749.022 1112.16C803.924 1114.12 844.708 1096.47 850.983 1037.25C851.375 1032.55 854.904 1029.02 859.218 1028.23C883.14 1022.35 899.218 1001.18 903.924 977.254C905.101 973.333 905.493 968.234 906.277 964.313C906.669 959.999 907.061 955.293 907.453 950.587C907.453 950.195 907.846 950.195 908.238 950.195C908.63 950.195 908.63 950.587 908.63 950.587C909.414 958.823 910.199 969.803 909.414 978.038C907.846 1005.88 889.414 1032.16 861.571 1039.61L862.355 1038.82C859.218 1082.35 832.551 1114.12 787.846 1116.86C774.904 1118.04 761.571 1116.86 748.63 1113.72C748.238 1113.72 748.238 1113.33 748.238 1112.94C748.238 1112.16 748.63 1112.16 749.022 1112.16Z" fill="white"/>
<path d="M201.178 931.372C205.491 953.725 218.432 975.686 238.04 987.45C239.609 988.627 243.138 990.195 244.707 991.372C248.236 992.94 252.158 994.509 255.687 995.686L263.138 997.646C265.099 998.431 268.628 998.823 270.981 999.215L278.825 1000.39C286.668 1001.57 298.825 997.254 302.746 1006.27C328.628 1061.18 379.217 1102.74 442.746 1090.59C446.668 1090.2 450.589 1091.76 452.158 1095.29C455.687 1100.78 460.393 1106.67 464.707 1111.76C487.06 1138.43 520.785 1158.04 556.472 1150.59C570.589 1147.84 584.315 1141.96 596.864 1134.12C597.256 1133.72 597.648 1134.12 597.648 1134.12C542.354 1180 480.393 1155.69 442.746 1100.78L443.923 1101.18C428.236 1103.92 412.158 1104.71 396.079 1101.57C349.021 1092.94 312.942 1052.94 294.119 1009.41L294.903 1009.8C286.668 1009.41 277.648 1009.02 269.413 1007.06C267.06 1006.67 263.138 1005.88 261.178 1005.1C256.472 1003.92 249.413 1001.18 245.099 998.823L241.178 996.862L237.648 994.509C236.079 993.333 232.158 991.372 230.589 989.803C212.55 975.686 201.962 953.333 199.609 930.98C199.609 930.587 200.001 930.195 200.001 930.195C201.178 930.98 201.178 930.98 201.178 931.372Z" fill="white"/>
<path d="M735.687 1064.71C782.746 1052.16 805.883 1024.71 798.824 975.294C798.432 972.157 799.217 969.02 801.177 967.059C814.119 951.765 817.648 930.98 815.687 911.372C815.295 905.098 812.942 896.078 811.766 889.804C811.766 889.412 811.766 889.02 812.158 889.02C812.55 889.02 812.55 889.02 812.942 889.412C816.079 896.078 819.217 903.137 821.177 910.196C825.099 924.706 825.099 940.392 820.393 954.51C818.04 961.569 814.511 968.627 809.805 974.51L810.197 973.725C816.864 1009.02 805.099 1045.49 769.413 1059.22C758.824 1063.53 747.452 1065.88 736.079 1066.27C734.903 1065.88 734.903 1064.71 735.687 1064.71Z" fill="white"/>
<path d="M292.55 871.764C286.275 892.156 293.334 914.901 308.628 929.411L310.589 931.764L312.942 933.725C317.648 937.646 323.138 941.176 328.236 944.705L339.217 950.587C341.57 951.764 343.138 954.117 343.53 956.862C351.373 986.274 375.295 1009.41 402.354 1021.96C419.609 1030.98 438.432 1035.29 457.256 1038.82C462.746 1040 464.315 1045.1 468.236 1048.63C472.55 1052.94 477.256 1057.25 481.962 1061.18C510.589 1085.49 549.021 1098.43 586.668 1093.33L596.472 1092.16C596.864 1092.16 597.256 1092.16 597.256 1092.55C597.256 1092.94 597.256 1092.94 596.864 1093.33C558.824 1105.1 516.864 1097.65 483.922 1074.9C474.119 1068.23 460.393 1056.86 454.903 1049.41C428.628 1045.1 401.962 1037.25 380.001 1021.96C358.824 1007.84 338.04 981.176 335.295 958.039C328.628 954.117 318.824 947.842 312.942 943.137C311.766 942.352 306.668 937.254 305.491 936.078C303.53 933.725 300.785 930.98 299.217 928.235C287.452 911.764 283.53 889.411 291.766 870.587C291.766 870.195 292.158 870.195 292.55 870.195C292.942 870.98 292.942 871.372 292.55 871.764Z" fill="white"/>
<path d="M361.177 842.352C360.393 860.391 367.06 878.431 378.824 891.764C381.177 894.901 385.099 898.431 388.236 901.176C389.413 901.96 393.334 905.097 394.511 905.882C398.432 909.019 405.491 910.587 405.883 916.078C407.06 924.705 411.373 933.725 416.472 940.783C432.55 964.313 460.393 976.862 487.452 984.705C489.805 985.489 491.373 986.666 492.55 988.627C516.472 1018.82 556.079 1034.51 594.119 1030.59C600.785 1030.98 606.668 1034.51 613.726 1035.69C628.628 1039.61 645.099 1041.57 660.393 1040.39C680.785 1039.61 699.609 1030.98 709.805 1013.33C711.766 1010.59 714.511 1010.2 716.864 1008.23C727.844 1000.78 736.864 990.587 742.354 978.431C749.413 963.921 747.844 947.45 743.923 932.548C744.707 926.274 745.883 919.215 745.491 912.156C745.099 892.548 737.256 873.333 724.707 858.038C723.923 857.646 725.099 856.47 725.491 857.254C745.099 876.47 754.119 905.097 750.197 932.156C762.746 964.705 748.236 1000.39 717.648 1019.21C708.236 1037.65 683.53 1050.59 661.57 1051.37C640.001 1053.33 614.119 1048.63 595.687 1042.35C553.726 1046.67 509.805 1028.63 484.315 994.509L484.707 994.901C476.079 992.156 464.315 987.842 456.472 983.921C454.511 982.744 448.236 979.607 446.275 978.431C443.923 976.862 438.824 973.725 436.864 972.156L430.981 967.45C415.295 954.509 402.746 936.862 400.001 916.47L400.393 917.254C397.256 914.901 394.119 912.94 391.373 910.587L387.06 907.058L385.099 905.097C383.138 903.136 381.177 900.784 379.217 899.215C375.687 894.901 372.158 890.195 369.413 885.489C362.354 872.548 358.824 857.254 360.785 842.352C360.785 841.96 361.177 841.96 361.57 841.96C360.785 841.96 361.177 841.96 361.177 842.352Z" fill="white"/>
<path d="M696.988 1089.66C697.119 1078.4 688.272 1069.17 677.227 1069.04C666.182 1068.91 657.123 1077.94 656.992 1089.2C656.861 1100.46 665.708 1109.69 676.753 1109.82C687.797 1109.95 696.857 1100.92 696.988 1089.66Z" fill="white"/>
<path d="M720 1142.74C722.745 1163.53 709.02 1182.74 689.412 1185.1C669.804 1187.45 651.765 1172.94 649.02 1151.76C646.274 1130.98 658.823 1102.35 678.431 1099.61C698.039 1097.25 717.255 1121.57 720 1142.74Z" fill="white"/>
<path d="M669.018 1117.65C658.822 1125.88 631.37 1126.67 620.39 1118.82C606.665 1108.23 621.174 1073.33 630.586 1062.35C630.978 1061.96 631.763 1061.96 631.763 1062.74L628.233 1085.49C627.449 1092.94 625.88 1100.78 626.665 1107.84C626.665 1109.41 628.233 1110.19 629.802 1110.59C640.39 1114.51 651.763 1115.68 663.135 1116.86C664.704 1116.86 667.449 1117.25 668.625 1116.47C668.625 1116.86 669.018 1117.25 669.018 1117.65Z" fill="white"/>
<path d="M665.882 1140.78C650.98 1151.37 634.51 1156.08 616.078 1154.12C614.902 1154.12 612.549 1153.33 611.373 1152.94C592.549 1146.66 586.275 1123.53 590.196 1105.88C590.196 1105.1 590.98 1104.7 591.373 1105.49C595.686 1119.21 601.569 1139.21 617.647 1141.96C625.49 1143.14 633.726 1142.74 641.569 1141.96C649.412 1141.17 657.647 1140.39 665.49 1138.82C666.274 1139.21 666.667 1140 665.882 1140.78C665.882 1140.78 666.275 1140.39 665.882 1140.78Z" fill="white"/>
<path d="M660.392 1160C651.765 1163.92 643.922 1167.06 637.647 1170.98C632.941 1174.12 629.804 1176.47 627.843 1181.57C625.49 1187.84 625.882 1195.29 626.275 1203.92C627.059 1211.76 628.235 1220.39 628.627 1229.8C628.627 1230.19 627.843 1230.59 627.451 1230.19C614.902 1210.19 603.529 1171.76 634.118 1162.35C642.353 1159.61 651.373 1158.82 660 1159.21C661.176 1158.82 661.176 1160 660.392 1160Z" fill="white"/>
<path d="M670.196 1172.55C668.627 1182.74 664.706 1189.8 667.843 1197.65C673.333 1209.02 678.039 1220.78 678.039 1234.51C678.039 1234.9 677.255 1235.29 677.255 1234.9C673.726 1230.19 670.196 1225.1 666.667 1220C662.353 1212.16 655.686 1204.31 655.686 1194.9C656.078 1185.49 662.353 1177.25 669.02 1171.37C670.196 1170.98 670.588 1171.76 670.196 1172.55Z" fill="white"/>
<path d="M692.548 1113.72C694.508 1111.76 698.822 1108.23 701.175 1106.27C707.449 1101.17 716.077 1095.68 722.351 1090.59C722.744 1090.19 723.136 1089.8 722.744 1090.59C722.351 1090.98 721.959 1091.76 721.567 1092.55C721.175 1093.72 720.783 1094.51 721.175 1095.68C717.646 1081.57 713.332 1067.84 714.116 1052.55V1052.16C714.116 1051.76 714.9 1051.37 715.293 1051.76C720.391 1061.96 725.489 1072.55 729.41 1083.14C730.979 1087.06 732.94 1091.37 732.94 1096.08C732.547 1098.04 730.979 1098.82 729.802 1100C725.097 1103.53 719.606 1105.88 714.508 1108.23C711.763 1109.41 691.371 1118.04 692.155 1114.12C692.155 1113.72 692.548 1113.72 692.548 1113.72Z" fill="white"/>
<path d="M700.783 1134.9C714.9 1125.88 731.371 1121.96 745.489 1116.08C749.41 1113.72 751.371 1109.8 753.724 1105.1C757.253 1098.82 759.999 1090.98 763.92 1082.74C763.92 1082.35 764.312 1082.35 764.704 1082.35C765.881 1094.51 764.312 1107.84 758.038 1118.82C751.371 1130.19 736.469 1130.98 724.704 1133.33C716.469 1134.51 708.626 1135.68 700.391 1136.08C699.999 1136.08 699.998 1135.29 700.783 1134.9Z" fill="white"/>
<path d="M710.586 1152.15C741.174 1126.66 778.429 1146.66 771.762 1186.66C770.194 1196.08 766.664 1205.1 759.997 1212.55C759.605 1212.94 758.821 1212.55 758.821 1212.15C759.997 1207.84 760.782 1203.92 761.174 1199.61C765.096 1170.59 757.644 1145.88 723.135 1150.98C718.821 1151.37 714.507 1152.15 710.586 1153.33C710.193 1153.72 709.801 1152.55 710.586 1152.15Z" fill="white"/>
<path d="M705.097 1167.06C718.822 1165.49 733.724 1176.08 734.116 1191.37C733.332 1207.06 726.273 1221.17 713.332 1230.59C712.94 1230.98 712.155 1230.98 712.155 1230.19C716.077 1218.82 719.999 1207.45 721.959 1195.68C723.528 1189.8 721.959 1184.31 718.038 1179.61C714.508 1175.29 709.802 1171.37 704.704 1168.23C703.92 1167.45 704.312 1166.67 705.097 1167.06Z" fill="white"/>
<path d="M717.644 963.138C709.409 1003.53 656.076 1027.84 566.272 991.373C472.939 953.726 432.546 863.922 422.35 837.255C477.644 733.726 439.213 661.961 439.213 661.961C566.664 650.981 678.037 800 678.037 800L695.292 873.726C696.86 880 699.997 885.491 704.703 889.412C712.939 903.922 722.743 937.255 717.644 963.138Z" fill="white"/>
<path d="M420.391 838.431C427.842 827.059 432.548 813.726 435.685 800.784C441.568 773.726 443.529 746.275 443.921 718.824V708.627C442.744 698.431 439.215 687.843 435.293 678.431C430.195 665.882 448.627 658.039 454.509 670.588C455.293 672.157 455.293 674.902 455.293 676.471C456.47 729.804 458.823 798.431 425.097 842.745C422.744 845.098 418.038 841.569 420.391 838.431Z" fill="black"/>
<path d="M682.351 799.216C688.233 802.746 690.194 807.452 690.978 812.158C693.331 821.569 692.547 831.766 694.9 841.569C696.861 850.981 702.743 860.001 704.312 869.805C706.272 880.001 712.155 901.569 714.508 912.158C715.292 914.511 713.723 917.256 710.978 917.648C709.41 918.04 708.233 917.648 707.057 916.864C701.959 912.55 699.606 908.236 696.469 902.746C691.371 893.334 687.841 884.707 684.704 874.118C681.959 864.707 683.135 854.511 680.782 844.707C678.821 835.295 673.331 826.275 671.37 816.471C670.194 811.765 669.802 806.667 673.331 800.785C675.684 798.432 679.606 797.648 682.351 799.216Z" fill="black"/>
<path d="M710.587 902.746C635.685 898.824 574.509 875.295 514.901 769.021C565.097 813.334 624.313 830.197 686.666 838.04L694.901 874.118C696.47 880.393 705.882 898.824 710.587 902.746Z" fill="black"/>
<path d="M707.452 888.236C720.785 913.334 728.628 944.707 720.393 972.55C714.118 992.158 696.079 1006.67 676.471 1012.16C630.981 1024.31 578.432 1005.1 538.04 983.53C488.236 955.687 451.373 909.02 427.844 858.04C426.275 854.118 431.765 850.981 434.118 854.903C442.354 871.373 451.765 887.452 462.354 901.962C472.942 916.864 485.099 930.589 498.824 942.746C538.824 978.824 592.942 1001.18 647.06 1001.18C702.746 999.609 723.922 970.197 710.981 916.079C709.02 907.452 705.883 898.432 701.569 890.981C699.216 887.844 705.099 884.315 707.452 888.236Z" fill="black"/>
<path d="M859.215 417.255C866.274 450.196 869.803 476.863 850.587 564.706C831.764 652.157 877.646 670.196 769.019 810.196C724.705 867.451 617.254 851.373 530.195 792.157C500.783 772.157 488.234 720.785 466.274 684.314C449.019 655.687 441.176 685.49 418.431 660.785C387.45 627.059 350.195 559.216 368.627 439.216C398.431 244.706 552.548 221.961 666.666 243.53C781.568 265.49 840.391 330.588 859.215 417.255Z" fill="white"/>
<path d="M438.038 695.686C429.019 680.392 417.254 667.059 406.274 652.941C395.685 638.432 387.058 622.353 379.999 605.883C333.333 491.373 351.372 330.196 465.882 262.745C513.333 235.294 570.587 228.628 623.921 232.941C738.038 241.177 842.744 293.726 867.45 414.51C880.784 467.843 862.744 522.745 852.548 574.902C847.842 600.785 851.764 627.451 851.372 654.118C850.98 681.177 843.529 708.235 833.333 733.334C827.058 750.588 816.078 765.882 804.705 780C785.882 802.745 767.058 825.883 743.136 843.53C737.646 847.451 727.842 849.412 721.176 850.196C702.744 852.941 684.705 853.726 666.274 852.549C594.117 849.412 516.862 814.51 487.842 744.706C486.666 741.961 490.587 740 492.156 742.353C529.803 801.961 598.823 831.373 667.45 835.294C688.627 836.471 710.195 836.079 730.98 831.765C741.176 826.667 750.195 817.647 758.823 809.412C779.999 788.235 801.568 765.49 816.862 739.608C835.293 704.706 845.489 666.667 842.352 627.059C841.568 609.412 841.176 590.981 844.705 573.334C847.842 555.686 851.764 538.824 854.117 520.785C856.47 503.53 857.646 485.883 857.646 468.628C855.685 418.039 839.215 365.883 807.058 326.667C736.078 238.432 568.235 215.294 473.725 275.686C414.117 312.549 386.274 381.569 377.254 448.628C363.529 529.02 367.45 608.235 431.372 666.667L450.195 686.275C457.646 694.902 444.313 705.098 438.038 695.686Z" fill="black"/>
<path d="M484.311 570.98C484.311 570.98 472.155 512.157 414.9 519.215C365.488 525.49 348.233 643.921 460.39 676.863" fill="white"/>
<path d="M455.293 625.49C446.274 620.392 439.999 611.765 439.607 601.176C439.999 593.333 441.176 584.314 439.215 576.471C438.038 569.02 430.195 567.059 424.313 567.451C418.038 568.627 414.117 576.471 412.94 582.745C412.94 583.137 412.548 584.314 412.548 584.706C412.156 586.667 409.019 586.667 408.235 584.706C403.137 569.412 414.509 552.549 430.98 554.51C454.117 556.078 457.254 580.392 452.94 598.823C450.587 606.667 453.725 613.725 458.038 620.392L458.823 621.569C460.784 623.921 457.646 627.059 455.293 625.49Z" fill="black"/>
<path d="M769.018 529.412C774.9 557.255 785.881 583.137 799.606 607.451C811.763 637.255 780.39 665.49 752.547 664.313C749.41 664.313 749.018 660 751.763 659.215C769.41 653.725 785.488 641.961 788.234 623.921C789.41 618.431 787.841 613.725 785.096 609.019C772.155 584.706 764.312 556.862 766.273 529.412C766.273 527.451 769.018 527.451 769.018 529.412Z" fill="black"/>
<path d="M482.352 571.373C473.332 548.235 453.725 526.275 427.45 526.667C425.097 526.275 421.176 527.059 418.823 527.059C412.156 527.451 406.666 529.804 401.568 534.51C376.47 559.608 380.783 603.922 401.176 631.765C408.234 641.569 417.254 650.196 427.45 657.255C437.646 664.314 449.019 669.804 461.176 674.51C463.921 675.294 462.744 679.608 459.999 679.216C433.725 673.726 408.627 660.784 391.372 639.216C364.705 607.059 359.215 553.333 390.979 521.961C398.038 515.686 407.842 510.98 417.646 510.98C420.783 510.98 425.489 510.196 428.627 510.98C445.097 511.765 460.783 520 470.979 532.941C479.999 543.922 485.097 557.255 486.666 570.588C486.666 572.941 483.136 573.726 482.352 571.373Z" fill="black"/>
<path d="M730.195 701.961C730.587 714.902 711.371 747.844 674.508 732.549C638.822 718.04 628.234 649.804 679.214 682.353C705.097 699.608 721.567 702.353 730.195 701.961Z" fill="white"/>
<path d="M738.43 702.353C727.842 705.882 717.646 702.745 707.842 699.216C693.332 694.118 681.567 684.706 667.842 678.039C649.018 669.02 641.567 681.176 646.665 698.824C651.763 717.647 668.234 734.118 688.626 734.902C706.665 736.863 725.881 720.392 724.312 701.961C722.744 694.118 734.116 691.765 736.077 699.216C735.685 712.549 727.45 721.961 718.822 729.804C701.567 743.922 675.293 740.784 658.038 727.843C644.704 717.255 633.724 700.392 636.077 682.353C636.861 674.51 644.312 665.49 652.548 665.098C671.763 663.529 683.136 676.471 698.038 685.098C709.802 691.765 723.136 700 736.861 698.824C739.214 698.039 740.783 701.177 738.43 702.353Z" fill="black"/>
<path d="M647.448 687.843C653.722 696.863 663.526 701.569 673.722 703.922C676.075 704.706 678.036 704.706 679.997 704.706C683.526 704.706 687.056 707.451 689.016 709.412C698.428 716.863 711.369 718.039 723.134 718.431C725.879 718.431 725.879 723.137 723.134 722.745C710.585 721.961 697.252 720.784 685.487 714.902C683.134 714.118 681.957 713.333 679.997 713.333C672.546 714.118 666.663 709.412 661.173 706.274C654.899 702.745 648.624 699.216 641.173 697.647C637.644 696.863 635.683 693.725 636.075 690.196C636.859 684.706 644.703 683.137 647.448 687.843Z" fill="black"/>
<path d="M622.746 569.412C613.334 569.02 606.275 561.177 607.06 551.765L607.452 540.785C607.844 531.373 615.687 524.314 625.099 525.099C634.511 525.491 641.57 533.334 640.785 542.746L640.393 553.726C640.001 562.746 632.158 569.804 622.746 569.412Z" fill="black"/>
<path d="M787.843 575.295C779.215 574.903 772.549 567.452 772.941 558.824L773.333 548.628C773.725 540.001 781.176 533.334 789.803 533.726C798.431 534.119 805.098 541.57 804.705 550.197L804.313 560.393C803.921 569.02 796.47 575.687 787.843 575.295Z" fill="black"/>
<path d="M658.04 548.236C645.099 539.608 630.981 533.726 615.295 536.863C610.197 537.647 605.099 539.216 601.962 542.746C600.785 544.314 598.04 543.922 598.04 541.569C598.432 533.726 605.099 528.628 611.373 525.491C623.53 519.216 640.393 520.393 651.373 528.628C655.295 530.981 668.628 545.491 661.569 548.628C660.001 549.412 659.217 549.02 658.04 548.236Z" fill="black"/>
<path d="M770.197 550.197C770.197 533.726 790.589 527.844 803.138 533.726C810.197 536.863 815.295 543.138 817.256 550.589C818.04 552.942 814.511 554.903 812.942 552.942C806.275 545.099 794.903 541.177 785.883 545.883C783.138 547.452 782.746 548.628 781.962 550.197C781.962 558.04 770.589 557.648 770.197 550.197Z" fill="black"/>
<path d="M676.864 483.53C685.099 486.275 693.334 478.824 691.766 469.804C690.981 465.098 689.02 460.392 685.099 456.863C673.334 446.275 624.707 436.863 595.295 450.589C569.413 463.138 639.217 470.981 676.864 483.53Z" fill="black"/>
<path d="M794.12 489.804C787.453 492.157 780.394 485.098 781.571 476.863C781.963 472.549 783.532 468.236 786.669 465.098C796.081 455.687 828.237 448.236 848.63 462.745C866.277 474.902 824.708 478.432 794.12 489.804Z" fill="black"/>
<path d="M594.902 224.313C363.137 219.608 339.608 413.725 354.118 529.412C370.196 658.039 447.059 708.627 447.059 708.627L452.157 674.51C452.157 674.51 433.725 668.235 416.078 655.294C354.902 609.019 373.725 524.706 415.294 519.608C456.863 514.117 474.902 544.314 481.176 560.784C503.137 488.235 472.157 470.196 503.137 418.823C600 314.117 667.451 384.706 714.902 398.431C766.667 412.941 800.784 396.47 820 378.039C833.725 364.706 851.372 389.804 851.372 389.804C851.372 389.804 825.882 229.019 594.902 224.313Z" fill="black"/>
<path d="M796.863 714.51C768.235 719.216 753.725 702.746 748.235 694.902C738.431 714.51 714.902 731.373 667.843 723.138C606.667 712.549 605.882 657.255 605.882 657.255C625.098 677.648 649.804 662.353 683.922 649.804C724.314 635.295 742.745 649.02 749.02 656.863C749.804 656.079 758.431 665.883 776.078 647.451C780 643.53 787.059 650.589 792.941 655.687C812.549 673.726 821.961 676.079 829.02 665.491C829.02 665.883 830.588 709.02 796.863 714.51Z" fill="black"/>
<path d="M1130.2 330.588C1368.24 789.02 949.804 1306.27 450.981 1180C227.059 1124.31 47.0589 930.196 9.80403 702.353C-32.5489 475.686 69.804 232.157 261.177 103.922C523.53 -76.4704 887.059 -16.4704 1074.9 241.569C1076.08 242.745 1075.69 244.706 1074.12 245.883C1072.94 247.059 1070.98 246.667 1069.8 245.098C1043.92 211.765 1014.51 181.569 982.353 154.51C929.412 109.412 867.451 74.1179 801.961 50.1963C468.628 -70.588 102.745 130.196 29.804 478.824C-52.5489 869.412 279.608 1229.02 675.686 1175.29C981.177 1136.86 1208.24 854.902 1183.14 548.235C1177.65 474.118 1158.04 400.785 1125.49 333.334C1124.71 332.157 1125.49 330.588 1126.67 329.804C1127.84 329.02 1129.41 329.412 1130.2 330.588Z" fill="white"/>
</g>
</svg>
