<svg width="289" height="289" viewBox="0 0 289 289" fill="none" xmlns="http://www.w3.org/2000/svg">
<g clip-path="url(#clip0_57_306)">
<mask id="mask0_57_306" style="mask-type:alpha" maskUnits="userSpaceOnUse" x="0" y="0" width="289" height="289">
<path d="M144.026 288.053C223.57 288.053 288.053 223.57 288.053 144.026C288.053 64.4828 223.57 0 144.026 0C64.4828 0 0 64.4828 0 144.026C0 223.57 64.4828 288.053 144.026 288.053Z" fill="#D9D9D9"/>
</mask>
<g mask="url(#mask0_57_306)">
<path d="M222.984 262.932C222.323 263.407 221.567 263.879 220.906 264.351C220.15 264.823 219.489 265.295 218.734 265.673C218.073 266.051 217.506 266.427 216.845 266.805C216.75 266.901 216.656 266.901 216.561 266.995C214.389 268.317 212.123 269.545 209.856 270.677C209.195 271.056 208.439 271.434 207.778 271.718C207.778 271.718 207.684 271.812 207.589 271.812C206.834 272.19 206.078 272.566 205.323 272.944C203.811 273.7 202.206 274.362 200.695 275.022C199.939 275.4 199.089 275.684 198.334 275.966C197.578 276.25 196.728 276.628 195.972 276.91C195.217 277.194 194.367 277.572 193.611 277.857C193.611 277.857 193.611 277.857 193.517 277.857C192.761 278.138 191.912 278.423 191.156 278.704C189.456 279.273 187.661 279.839 185.962 280.405C185.395 280.595 184.734 280.783 184.167 280.973C182.373 281.539 180.578 282.011 178.784 282.389C178.123 282.577 177.462 282.673 176.706 282.861C175.006 283.239 173.211 283.617 171.512 283.995C171.134 284.089 170.85 284.089 170.473 284.183C169.906 284.277 169.245 284.371 168.678 284.468C167.828 284.561 167.072 284.749 166.223 284.843C165.845 284.94 165.467 284.94 165.089 285.033C164.617 285.127 164.05 285.221 163.484 285.221C161.973 285.412 160.367 285.599 158.856 285.79C158.384 285.884 157.817 285.884 157.345 285.978H157.25C156.589 286.071 155.928 286.071 155.267 286.168C154.606 286.262 153.945 286.262 153.284 286.262C152.906 286.262 152.434 286.356 152.056 286.356C151.3 286.356 150.639 286.45 149.978 286.45C149.034 286.45 148.184 286.544 147.239 286.544C146.295 286.544 145.445 286.544 144.5 286.544C143.839 286.544 143.178 286.544 142.517 286.544C102.661 285.978 66.867 269.071 41.2725 242.249C41.2725 242.249 41.2725 242.156 41.178 242.156C38.3446 239.606 40.8004 226.005 52.2282 217.411C66.5836 206.55 100.962 199.75 100.962 199.75C100.962 199.75 114.278 197.578 163.673 207.872C192.573 213.917 214.578 222.7 226.856 246.5C229.406 251.411 231.956 258.966 222.984 262.932Z" fill="white"/>
<path d="M163.956 206.833C182.089 210.517 201.45 214.483 216.372 226.478C221.378 230.539 224.683 236.489 227.422 242.249C228.745 245.084 230.067 248.01 231.106 251.129C231.672 253.205 232.522 255.567 232.05 258.022C231.956 258.684 231.389 259.534 230.917 260.006C228.745 262.178 226.383 263.501 224.022 265.201C210.139 274.834 194.178 281.633 177.65 285.221C140.817 293.251 100.961 287.016 68.5667 267.655C57.8 261.138 47.8832 253.205 39.3833 243.856C38.439 242.721 38.439 240.833 38.439 239.606C38.5334 236.772 39.2889 234.033 40.2334 231.483C42.4999 225.628 45.4277 219.772 50.4334 215.711C54.0223 213.255 57.8945 211.178 61.8612 209.478C74.3277 204.189 87.4555 200.506 100.961 198.994C102.094 198.9 102.283 200.506 101.15 200.694C88.211 203.339 75.3667 207.305 63.3722 212.689C59.0278 214.861 54.4 216.75 50.9055 220.15C47.6 223.739 45.2389 228.178 43.35 232.711C42.1223 235.45 41.2721 239.794 41.65 241.968C47.6 249.051 54.5888 255.283 62.1444 260.666C103.511 289.566 166.317 291.456 210.328 267.373C214.295 265.201 218.167 262.744 221.85 260.194C223.644 258.966 225.533 257.928 226.95 256.512C227.044 256.418 226.95 256.512 226.95 256.605C226.95 256.699 226.856 256.793 226.856 256.793C226.95 255.661 226.572 254.149 226.1 252.639C224.4 247.16 221.661 241.399 218.733 236.395C214.105 228.933 206.267 224.211 198.333 220.433C192.856 217.883 187.095 215.9 181.239 214.011C175.383 212.122 169.433 210.517 163.483 209.1C161.972 208.722 162.445 206.55 163.956 206.833Z" fill="black"/>
<path d="M235.922 276.344C234.127 262.366 226.194 238.85 221.377 232.522C216.088 225.628 213.916 223.455 196.255 217.505C195.311 212.783 191.816 200.883 187.661 195.877C181.333 186.339 164.05 184.166 158.855 185.3C158.855 185.3 130.9 175.477 98.6939 175.477C88.4939 177.744 76.6885 182.372 70.2662 192.1C65.9218 198.522 70.8329 200.6 68.6606 206.455C68.0941 207.966 54.8719 215.522 49.4886 220.055C47.033 222.039 44.294 227.044 42.4052 233.561C38.6275 246.878 42.6884 265.295 37.9661 281.349C28.8995 312.327 10.4829 321.582 10.4829 321.582H254.527C254.339 321.488 239.794 305.81 235.922 276.344Z" fill="white"/>
<path d="M234.505 276.534C232.617 264.16 228.839 251.883 224.022 240.361C221.661 234.789 218.072 229.406 213.067 226.1C210.517 224.494 207.683 223.267 204.755 222.039C201.828 220.906 198.805 219.867 195.878 218.828C195.405 218.639 195.028 218.261 194.933 217.789C194.555 215.9 194.083 214.106 193.517 212.217C191.061 204.567 188.417 196.067 181.239 191.628C175.761 188.322 169.244 186.717 162.917 186.433C161.689 186.433 160.367 186.433 159.233 186.622H158.856C158.761 186.622 158.572 186.622 158.478 186.528C153.944 184.356 148.939 183.033 144.028 181.711C129.294 178.311 113.9 176.894 98.7888 176.8C89.5333 178.972 76.5943 184.072 70.9278 193.517C69.9832 195.028 69.5109 196.539 69.7 198.239C69.8888 200.128 70.5499 202.206 70.0776 204.189C69.8888 205.039 69.7 205.983 69.3221 206.739C68.5666 207.778 67.3389 208.439 66.3943 209.1C61.4833 212.311 56.4778 215.145 51.7555 218.45C50.1499 219.583 48.6389 220.622 47.5055 222.228C44.1998 226.95 42.2166 232.617 41.3667 238.283C39.8555 249.807 41.3667 261.516 39.8555 273.04C38.1554 284.561 33.7166 295.705 27.4834 305.528C23.1388 312.139 17.8499 318.278 11.1444 322.529L10.4833 319.884H254.527L253.489 322.245C250.654 319.034 248.388 315.54 246.312 311.855C239.889 301.09 236.111 288.906 234.505 276.534ZM237.339 276.156C238.378 284.183 240.361 292.116 243.384 299.671C246.406 307.132 250.182 314.406 255.471 320.544C256.227 321.394 255.567 323.001 254.433 322.905H10.3888C9.63328 322.905 8.97217 322.245 8.97217 321.488C8.97217 320.922 9.25551 320.45 9.72771 320.26C11.2388 319.41 12.75 318.184 14.1666 316.956C26.5388 305.81 34.2833 289.284 36.8332 272.85C39.0056 257.456 34.9444 240.833 41.8387 226.195C43.4444 222.794 45.4276 219.206 48.6389 217.033C54.4943 212.689 60.9166 209.478 66.6778 205.228C66.7722 205.228 66.7722 205.133 66.7722 205.133C66.6778 205.228 66.5834 205.417 66.5834 205.511C67.1501 204.189 67.3389 203.056 67.1501 201.544C66.8666 199.656 66.3943 197.106 67.0554 195.122C67.3389 193.989 67.9056 192.95 68.4722 192.1C75.2722 181.9 87.2666 177.367 98.6944 174.817C101.905 174.911 105.211 174.345 108.422 174.345C112.861 174.345 117.394 175.006 121.833 175.572C134.583 177.556 146.861 180.956 159.422 183.694L158.572 183.6C161.5 183.033 164.239 183.317 167.072 183.694C185.206 186.433 191.344 194.367 196.256 211.272C196.822 213.161 197.294 215.05 197.767 217.033L196.822 215.9C205.889 219.111 216.089 222.039 221.85 230.445C223.928 232.994 225.439 236.017 226.761 239.039C231.578 251.129 235.356 263.31 237.339 276.156Z" fill="black"/>
<path d="M87.0776 214.2C94.0666 229.123 104.928 241.777 117.867 251.789C118.339 252.167 117.867 252.923 117.3 252.639C105.778 247.162 96.0498 237.811 90.2888 226.478C88.4 222.7 86.7944 218.639 86.2277 214.389C86.0389 213.917 86.7944 213.728 87.0776 214.2Z" fill="black"/>
<path d="M197.672 217.317C197.956 233.089 191.533 249.238 179.256 259.44C178.972 259.722 178.595 259.628 178.311 259.344C178.028 259.062 178.122 258.684 178.406 258.4C181.145 255.755 183.883 253.017 185.961 249.807C190.306 243.572 192.95 236.206 194.178 228.745C194.745 225.061 195.122 221.095 194.839 217.411C194.745 215.617 197.578 215.428 197.672 217.317Z" fill="black"/>
<path d="M142.044 254.811C139.872 262.46 138.077 270.771 139.116 278.707C139.4 280.501 136.661 280.973 136.283 279.082C135.811 274.738 136.377 270.49 137.133 266.333C137.983 262.178 139.022 258.212 140.439 254.245C140.816 253.301 142.422 253.773 142.044 254.811Z" fill="black"/>
<path d="M172.078 253.395C175.194 260.1 177.367 267.089 179.067 274.172C179.256 274.928 178.783 275.684 178.028 275.872C177.272 276.06 176.517 275.588 176.328 274.834C175.383 269.546 174.156 264.257 172.456 259.062C171.889 257.362 171.322 255.661 170.661 253.961C170.283 253.111 171.606 252.451 172.078 253.395Z" fill="black"/>
<path d="M70.6444 206.078C74.1389 225.156 87.55 241.305 103.7 251.601C109.178 255.095 115.033 258.116 121.078 260.572C121.456 260.762 121.644 261.138 121.456 261.516C121.361 261.894 120.889 262.084 120.606 261.894C114.372 259.628 108.328 256.793 102.661 253.395C91.1389 246.594 81.0335 237.15 74.2333 225.628C70.7391 219.678 68.0001 213.445 66.6779 206.644C66.4888 205.511 67.2446 204.472 68.3779 204.283C69.4166 204 70.55 204.85 70.6444 206.078Z" fill="black"/>
<path d="M136.377 280.783C133.733 280.501 131.844 278.044 132.41 275.4L133.449 270.396C133.827 268.411 135.716 266.995 137.699 267.277C139.683 267.467 141.288 269.167 141.288 271.243V276.344C141.383 278.989 139.116 281.067 136.377 280.783Z" fill="black"/>
<path d="M179.917 277.288C177.367 278.232 174.628 276.722 173.967 274.078L172.739 269.073C172.267 267.089 173.306 265.105 175.289 264.351C177.178 263.688 179.35 264.539 180.2 266.333L182.467 270.962C183.6 273.512 182.467 276.438 179.917 277.288Z" fill="black"/>
<path d="M223.55 274.456C223.55 274.456 228.839 304.112 226.761 321.488" stroke="black" stroke-width="5.1257" stroke-miterlimit="10" stroke-linecap="round" stroke-linejoin="round"/>
<path d="M100.205 202.678C98.883 198.9 98.3163 195.028 98.5995 191.061C98.5995 190.683 98.883 190.495 99.2609 190.495C99.5441 190.495 99.8273 190.778 99.8273 191.061C100.111 194.65 101.15 198.333 102.85 201.45C103.7 203.339 100.866 204.567 100.205 202.678Z" fill="black"/>
<path d="M164.049 207.684C161.405 201.734 154.888 198.711 149.127 196.633C145.538 195.5 141.572 194.65 137.794 194.083C128.633 192.667 115.694 190.495 106.533 189.55C106.438 189.55 106.438 189.361 106.533 189.361C109.177 189.078 111.822 189.078 114.466 189.078C122.4 189.267 130.333 190.117 138.172 191.344C146.011 192.572 154.416 194.933 160.366 200.6C162.255 202.583 163.955 204.85 164.427 207.589C164.522 207.872 164.144 207.967 164.049 207.684Z" fill="black"/>
<path d="M172.832 231.956C170.849 241.683 158.005 247.538 136.377 238.756C113.899 229.689 104.171 208.061 101.716 201.639C115.032 176.706 105.777 159.422 105.777 159.422C136.471 156.778 163.294 192.667 163.294 192.667L167.449 210.422C167.827 211.933 168.582 213.256 169.716 214.2C171.699 217.695 174.06 225.722 172.832 231.956Z" fill="white"/>
<path d="M101.244 201.922C103.039 199.183 104.172 195.972 104.928 192.856C106.344 186.339 106.817 179.728 106.911 173.117V170.661C106.628 168.206 105.778 165.656 104.833 163.389C103.605 160.367 108.044 158.478 109.461 161.5C109.65 161.878 109.65 162.539 109.65 162.917C109.933 175.761 110.5 192.289 102.378 202.961C101.811 203.528 100.678 202.678 101.244 201.922Z" fill="black"/>
<path d="M164.333 192.478C165.75 193.328 166.222 194.461 166.411 195.595C166.977 197.861 166.789 200.317 167.355 202.678C167.827 204.945 169.244 207.117 169.622 209.478C170.094 211.934 171.511 217.128 172.077 219.678C172.266 220.245 171.888 220.906 171.227 221C170.85 221.095 170.566 221 170.283 220.811C169.055 219.772 168.489 218.733 167.733 217.411C166.505 215.145 165.655 213.067 164.9 210.517C164.239 208.25 164.522 205.795 163.955 203.434C163.483 201.167 162.161 198.995 161.688 196.633C161.405 195.5 161.311 194.272 162.161 192.856C162.727 192.289 163.672 192.1 164.333 192.478Z" fill="black"/>
<path d="M171.133 217.411C153.094 216.467 138.361 210.8 124.005 185.206C136.094 195.878 150.355 199.939 165.372 201.828L167.355 210.517C167.733 212.028 170 216.467 171.133 217.411Z" fill="black"/>
<path d="M170.378 213.917C173.589 219.961 175.478 227.517 173.495 234.222C171.983 238.944 167.639 242.44 162.917 243.762C151.961 246.688 139.306 242.062 129.578 236.867C117.583 230.161 108.706 218.922 103.039 206.645C102.661 205.7 103.983 204.945 104.55 205.889C106.534 209.856 108.8 213.728 111.35 217.222C113.9 220.811 116.828 224.117 120.133 227.044C129.767 235.733 142.8 241.118 155.834 241.118C169.245 240.739 174.344 233.656 171.228 220.622C170.756 218.544 170 216.372 168.961 214.578C168.394 213.822 169.811 212.972 170.378 213.917Z" fill="black"/>
<path d="M206.928 100.489C208.628 108.422 209.478 114.844 204.85 136C200.317 157.061 211.367 161.406 185.206 195.122C174.533 208.911 148.656 205.039 127.689 190.778C120.605 185.961 117.583 173.589 112.294 164.806C108.139 157.911 106.25 165.089 100.772 159.139C93.311 151.017 84.3388 134.678 88.7778 105.778C95.9556 58.9334 133.072 53.4556 160.556 58.6501C188.228 63.9388 202.394 79.6166 206.928 100.489Z" fill="white"/>
<path d="M105.494 167.544C103.322 163.861 100.489 160.65 97.8443 157.25C95.2941 153.756 93.2164 149.883 91.5164 145.917C80.2777 118.339 84.622 79.5222 112.2 63.2778C123.628 56.6666 137.416 55.0613 150.261 56.1C177.744 58.0835 202.961 70.739 208.911 99.8278C212.122 112.672 207.777 125.894 205.322 138.456C204.189 144.689 205.133 151.111 205.039 157.533C204.944 164.05 203.15 170.567 200.694 176.611C199.183 180.767 196.539 184.45 193.8 187.85C189.267 193.328 184.733 198.9 178.972 203.15C177.65 204.094 175.289 204.567 173.683 204.756C169.244 205.417 164.9 205.606 160.461 205.322C143.083 204.567 124.478 196.161 117.489 179.35C117.205 178.689 118.15 178.217 118.528 178.783C127.594 193.139 144.216 200.222 160.744 201.167C165.844 201.45 171.039 201.356 176.044 200.317C178.5 199.089 180.672 196.917 182.75 194.933C187.85 189.833 193.044 184.356 196.728 178.122C201.166 169.717 203.622 160.556 202.866 151.017C202.678 146.767 202.583 142.328 203.433 138.078C204.189 133.828 205.133 129.767 205.7 125.422C206.266 121.267 206.55 117.017 206.55 112.861C206.077 100.678 202.111 88.1168 194.366 78.6723C177.272 57.4224 136.85 51.85 114.089 66.3944C99.7331 75.2722 93.0276 91.8945 90.8553 108.045C87.5499 127.406 88.4942 146.483 103.889 160.556L108.422 165.278C110.216 167.356 107.005 169.811 105.494 167.544Z" fill="black"/>
<path d="M116.638 137.511C116.638 137.511 113.711 123.344 99.9217 125.044C88.0217 126.555 83.8661 155.078 110.877 163.011" fill="white"/>
<path d="M109.65 150.639C107.478 149.411 105.966 147.333 105.872 144.783C105.966 142.894 106.25 140.722 105.778 138.833C105.494 137.039 103.605 136.567 102.189 136.661C100.677 136.944 99.7332 138.833 99.4497 140.344C99.4497 140.439 99.3553 140.722 99.3553 140.817C99.2609 141.289 98.5054 141.289 98.3166 140.817C97.0888 137.133 99.8276 133.072 103.794 133.544C109.367 133.922 110.122 139.778 109.083 144.217C108.516 146.106 109.272 147.805 110.311 149.411L110.5 149.694C110.972 150.261 110.216 151.017 109.65 150.639Z" fill="black"/>
<path d="M185.205 127.5C186.622 134.206 189.266 140.439 192.572 146.294C195.5 153.472 187.944 160.272 181.238 159.989C180.483 159.989 180.388 158.95 181.05 158.761C185.3 157.439 189.172 154.606 189.833 150.261C190.116 148.939 189.738 147.805 189.077 146.672C185.961 140.817 184.072 134.111 184.544 127.5C184.544 127.028 185.205 127.028 185.205 127.5Z" fill="black"/>
<path d="M116.166 137.606C113.994 132.033 109.272 126.745 102.944 126.839C102.377 126.745 101.433 126.933 100.866 126.933C99.2606 127.028 97.9385 127.594 96.7107 128.728C90.6663 134.772 91.705 145.445 96.6163 152.15C98.3161 154.511 100.488 156.589 102.944 158.289C105.399 159.989 108.138 161.311 111.066 162.444C111.727 162.633 111.444 163.672 110.783 163.578C104.455 162.256 98.4107 159.139 94.2552 153.945C87.8329 146.2 86.5107 133.261 94.1605 125.706C95.8606 124.194 98.2217 123.061 100.583 123.061C101.338 123.061 102.472 122.872 103.227 123.061C107.194 123.25 110.972 125.233 113.427 128.35C115.6 130.995 116.827 134.206 117.205 137.417C117.205 137.983 116.355 138.172 116.166 137.606Z" fill="black"/>
<path d="M178.122 164.806C181.616 162.728 184.733 166.506 182.844 169.811C182.372 170.756 181.805 171.417 181.144 172.172L181.05 169.906C184.544 172.928 183.694 177.461 179.633 179.35C178.972 179.633 175.855 180.578 175.855 179.444C175.855 179.161 176.044 178.972 176.328 178.972C178.689 178.878 181.9 176.517 180.955 173.872C180.672 173.211 180.011 172.456 179.444 172.172C178.783 171.794 178.594 171.039 178.972 170.378C179.728 169.528 181.522 168.583 181.522 166.978C181.333 165.561 179.917 165.089 178.594 165.561C178.028 165.845 177.65 165.089 178.122 164.806Z" fill="black"/>
<path d="M154.416 130.428C154.416 130.522 154.416 130.617 154.416 130.617L154.322 133.261C154.227 135.528 152.339 137.228 150.072 137.133C147.805 137.039 146.105 135.056 146.294 132.883L146.389 130.239C146.389 129.767 146.577 129.2 146.766 128.822L154.322 129.2C154.322 129.578 154.416 129.956 154.416 130.428Z" fill="black"/>
<path d="M193.894 132.506L193.8 134.961C193.705 137.039 191.911 138.645 189.833 138.55C187.755 138.456 186.15 136.661 186.244 134.583L186.339 132.128C186.339 131.656 186.433 131.183 186.622 130.806L193.705 131.089C193.8 131.561 193.894 132.033 193.894 132.506Z" fill="black"/>
<path d="M163.861 117.489C165.938 117.772 167.544 115.6 166.788 113.522C166.411 112.389 165.75 111.35 164.711 110.689C161.5 108.706 149.505 108.517 143.177 113.05C137.511 117.206 154.416 116.167 163.861 117.489Z" fill="black"/>
<path d="M190.022 118.528C188.322 118.528 187.283 116.356 188.133 114.561C188.605 113.617 189.266 112.767 190.21 112.295C193.138 110.878 200.977 111.728 204.472 116.545C207.588 120.795 197.861 118.433 190.022 118.528Z" fill="black"/>
<path d="M160.46 130.428L144.877 130.144C142.988 130.05 143.082 127.217 144.971 127.311L160.554 128.445C161.877 128.539 161.782 130.428 160.46 130.428Z" fill="black"/>
<path d="M197.861 132.033L186.339 132.222C184.45 132.222 184.355 129.483 186.244 129.389C186.339 129.389 186.339 129.389 186.433 129.389L197.956 130.617C198.805 130.711 198.711 131.939 197.861 132.033Z" fill="black"/>
<path d="M143.272 54.0221C87.4552 52.8889 81.7887 99.6388 85.2832 127.5C89.1553 158.478 107.666 170.661 107.666 170.661L108.894 162.445C108.894 162.445 104.455 160.933 100.205 157.817C85.472 146.672 90.0052 126.367 100.016 125.139C110.028 123.817 114.372 131.089 115.883 135.055C121.172 117.583 113.711 113.239 121.172 100.867C144.5 75.6498 160.744 92.65 172.172 95.9555C184.639 99.45 192.855 95.4832 197.483 91.0444C200.789 87.8334 205.039 93.8778 205.039 93.8778C205.039 93.8778 198.9 55.1554 143.272 54.0221Z" fill="black"/>
<path d="M183.07 144.548C183.07 144.548 183.875 149.108 189.172 151.388C190.514 151.924 191.922 151.053 191.922 149.577C191.855 149.577 183.406 145.085 183.07 144.548Z" fill="black"/>
<path d="M141.63 144.548C141.63 144.548 144.111 150.181 151.554 151.522C158.997 152.93 165.77 147.566 168.922 138.58C168.922 138.58 166.374 146.895 156.181 148.437C146.123 150.114 141.63 144.548 141.63 144.548Z" fill="black"/>
<path d="M170.397 132.009C170.196 141.598 162.485 149.309 153.164 149.309C143.843 149.309 136.4 141.598 136.4 132.009C136.467 122.353 144.178 114.44 153.633 114.44C163.088 114.44 170.665 122.353 170.397 132.009Z" stroke="black" stroke-width="3" stroke-miterlimit="10" stroke-linecap="round" stroke-linejoin="round"/>
<path d="M179.583 129.796C180.656 121.146 186.289 114.373 192.927 114.373C200.102 114.373 205.601 122.286 205.199 131.942C204.796 141.531 198.761 149.242 191.721 149.242C189.105 149.242 186.758 148.236 184.814 146.426" stroke="black" stroke-width="3" stroke-miterlimit="10" stroke-linecap="round" stroke-linejoin="round"/>
<path d="M136.601 130.131H127.079" stroke="black" stroke-width="3" stroke-miterlimit="10" stroke-linecap="round" stroke-linejoin="round"/>
<path d="M170.464 130.131C170.464 130.131 178.443 127.047 179.449 130.131" stroke="black" stroke-width="3" stroke-miterlimit="10" stroke-linecap="round" stroke-linejoin="round"/>
<path d="M191.911 172.078C185.017 173.211 181.522 169.244 180.2 167.356C177.839 172.078 172.172 176.139 160.839 174.155C146.106 171.606 145.917 158.289 145.917 158.289C150.544 163.2 156.494 159.517 164.711 156.494C174.439 153 178.878 156.306 180.389 158.194C180.578 158.005 182.655 160.367 186.905 155.928C187.85 154.983 189.55 156.683 190.967 157.911C195.689 162.255 197.956 162.822 199.656 160.272C199.656 160.367 200.033 170.756 191.911 172.078Z" fill="black"/>
<path d="M106.061 140.439C106.061 140.439 98.5057 139.305 99.0723 149.883C99.3556 155.266 99.3556 158.194 99.2612 159.705C99.1668 160.744 99.8278 161.689 100.772 162.067C101.906 162.539 103.133 162.067 103.7 160.933C104.55 159.422 105.494 157.344 105.494 155.644C105.494 152.811 108.517 150.261 108.517 150.261C108.517 150.261 105.778 147.9 106.061 140.439Z" fill="white"/>
<path d="M105.778 140.722C105.778 140.817 105.872 140.911 105.967 140.911C105.967 140.911 105.967 140.911 105.872 140.911H105.683C101.15 141.289 99.7334 145.255 99.9222 149.317C100.017 151.961 100.206 154.606 100.111 157.156C100.3 158.572 99.4499 160.461 100.867 161.217C101.717 161.689 102.85 161.311 103.228 160.367C104.078 158.667 104.928 156.966 104.928 155.078C105.306 152.906 106.722 151.205 108.233 149.883V150.639C106.25 148.561 105.778 145.728 105.494 143.083C105.589 142.422 105.589 141.383 105.778 140.722ZM106.439 140.061C106.722 142.706 106.722 145.444 107.856 147.805C108.139 148.466 108.611 149.222 109.178 149.694C109.556 149.978 109.556 150.544 109.178 150.828C107.856 152.055 106.722 153.567 106.533 155.267C106.533 157.344 105.683 159.328 104.739 161.122C103.983 162.728 101.811 163.578 100.206 162.633C99.1667 162.067 98.4112 160.933 98.4112 159.705C98.4112 158.761 98.5056 158.005 98.5056 157.061C98.5056 154.417 98.3166 151.867 98.2222 149.222C98.2222 147.522 98.3166 145.539 99.0723 143.839C100.017 141.194 102.944 139.4 105.778 139.872C106.061 139.872 106.345 139.967 106.439 140.061Z" fill="black"/>
<path d="M104.833 252.261C107.95 238.661 103.889 223.361 100.395 209.761C98.9779 204.378 97.5611 199.278 96.9 194.839C95.6723 187.378 96.5224 180.294 99.5446 173.683C103.228 165.466 102.661 158.478 102.661 158.194L100.772 158.383C100.772 158.478 101.339 165.278 97.8446 172.928C94.7279 179.822 93.7834 187.283 95.0112 195.122C95.7667 199.655 97.0888 204.85 98.5057 210.233C102 223.55 105.967 238.661 102.944 251.789C101.244 259.062 104.55 270.962 109.272 282.861C110.028 282.955 110.689 283.049 111.444 283.145C106.628 271.243 103.228 259.25 104.833 252.261Z" fill="black"/>
<path d="M99.3556 155.361C99.4501 157.439 99.3556 158.856 99.3556 159.705C99.2612 160.744 99.9223 161.689 100.867 162.067C102 162.539 103.228 162.067 103.795 160.933C104.645 159.422 105.589 157.344 105.589 155.644C105.589 155.55 105.589 155.361 105.589 155.267C103.7 156.022 101.434 156.589 99.3556 155.361Z" fill="white"/>
<path d="M99.6388 155.739C99.7333 157.061 99.8277 158.289 99.8277 159.611C99.7333 160.178 99.9221 160.744 100.3 161.216C101.528 162.444 103.228 161.689 103.7 160.178C104.456 158.667 105.117 157.061 105.117 155.361L105.778 155.833C103.7 156.211 101.528 156.778 99.5444 155.928C99.5444 155.928 99.6388 155.833 99.6388 155.739ZM99.1666 154.889C99.3554 154.889 99.7333 154.983 99.9221 155.172C101.622 156.4 103.794 155.833 105.494 154.889C105.778 154.7 106.25 154.983 106.156 155.361C106.061 157.533 105.211 159.611 104.078 161.5C103.039 162.917 100.867 163.011 99.6388 161.783C99.0722 161.216 98.7887 160.272 98.8831 159.517C98.8831 157.911 99.0722 156.4 99.1666 154.889Z" fill="black"/>
<path d="M188.322 218.167C189.928 207.022 188.416 199.089 187.85 196.728C187.567 196.917 187.378 197.2 187.094 197.389C186.811 197.672 186.528 197.861 186.244 198.144C186.811 201.167 187.85 208.344 186.433 217.883C185.772 222.322 185.583 229.311 185.489 237.433C185.3 245.272 182.844 264.823 179.917 283.333C180.578 283.145 181.239 282.955 181.9 282.861C184.828 264.539 187.189 245.366 187.378 237.528C187.567 229.406 187.661 222.511 188.322 218.167Z" fill="black"/>
<path d="M272.19 79.6166C329.518 190.022 228.744 314.593 108.611 284.183C54.6833 270.771 11.3333 224.022 2.36106 169.15C-7.83894 114.561 16.8111 55.9111 62.9001 25.0279C126.083 -18.4166 213.633 -3.96663 258.872 58.1778C259.156 58.4611 259.062 58.9333 258.684 59.2168C258.4 59.5 257.928 59.4056 257.643 59.0278C251.411 51.0001 244.328 43.7278 236.583 37.2111C223.833 26.35 208.911 17.85 193.139 12.0889C112.861 -17 24.7443 31.3555 7.17772 115.317C-12.6556 209.383 67.3388 295.989 162.728 283.049C236.3 273.794 290.984 205.889 284.939 132.033C283.617 114.183 278.895 96.5224 271.055 80.2779C270.868 79.9945 271.055 79.6166 271.34 79.4278C271.621 79.239 271.999 79.3334 272.19 79.6166Z" fill="black"/>
<path d="M127.16 130.17H116.563" stroke="black" stroke-width="3"/>
</g>
</g>
<defs>
<clipPath id="clip0_57_306">
<rect width="289" height="289" fill="white"/>
</clipPath>
</defs>
</svg>
