<svg width="33" height="33" viewBox="0 0 33 33" fill="none" xmlns="http://www.w3.org/2000/svg">
<path d="M16.5 28.875C13.0625 28.875 10.1406 27.6719 7.73438 25.2656C5.32812 22.8594 4.125 19.9375 4.125 16.5C4.125 13.0625 5.32812 10.1406 7.73438 7.73438C10.1406 5.32812 13.0625 4.125 16.5 4.125C16.6833 4.125 16.8781 4.13073 17.0844 4.14219C17.2906 4.15365 17.5542 4.17083 17.875 4.19375C17.05 4.92708 16.4083 5.83229 15.95 6.90938C15.4917 7.98646 15.2625 9.12083 15.2625 10.3125C15.2625 12.375 15.9844 14.1281 17.4281 15.5719C18.8719 17.0156 20.625 17.7375 22.6875 17.7375C23.8792 17.7375 25.0135 17.5255 26.0906 17.1016C27.1677 16.6776 28.0729 16.0875 28.8063 15.3312C28.8292 15.6062 28.8464 15.8297 28.8578 16.0016C28.8693 16.1734 28.875 16.3396 28.875 16.5C28.875 19.9375 27.6719 22.8594 25.2656 25.2656C22.8594 27.6719 19.9375 28.875 16.5 28.875ZM16.5 26.8125C18.9979 26.8125 21.175 26.0391 23.0312 24.4922C24.8875 22.9453 26.0448 21.1292 26.5031 19.0438C25.9302 19.2958 25.3172 19.4849 24.6641 19.6109C24.0109 19.737 23.3521 19.8 22.6875 19.8C20.0521 19.8 17.812 18.8776 15.9672 17.0328C14.1224 15.188 13.2 12.9479 13.2 10.3125C13.2 9.7625 13.2573 9.1724 13.3719 8.54219C13.4865 7.91198 13.6927 7.19583 13.9906 6.39375C11.7448 7.0125 9.88281 8.26719 8.40469 10.1578C6.92656 12.0484 6.1875 14.1625 6.1875 16.5C6.1875 19.3646 7.1901 21.7995 9.19531 23.8047C11.2005 25.8099 13.6354 26.8125 16.5 26.8125Z" fill="#37352F"/>
</svg>
