<svg width="30" height="30" viewBox="0 0 30 30" fill="none" xmlns="http://www.w3.org/2000/svg">
<path d="M8.27527 24.1998L9.30093 24.7991C11.0306 25.8078 12.9978 26.3374 15.0002 26.3333C17.2417 26.3333 19.4329 25.6686 21.2966 24.4233C23.1604 23.178 24.613 21.408 25.4708 19.3371C26.3286 17.2662 26.553 14.9874 26.1158 12.789C25.6785 10.5905 24.5991 8.5711 23.0141 6.9861C21.4291 5.40111 19.4097 4.32171 17.2112 3.88441C15.0128 3.44711 12.734 3.67155 10.6631 4.52935C8.59221 5.38714 6.82218 6.83976 5.57686 8.70352C4.33154 10.5673 3.66685 12.7585 3.66685 15C3.66685 17.0343 4.20093 18.9851 5.20252 20.7006L5.80035 21.7263L4.87527 25.1277L8.27527 24.1998ZM0.839182 29.1666L2.75452 22.1286C1.49246 19.9652 0.829401 17.5046 0.833515 15C0.833515 7.17573 7.17593 0.833313 15.0002 0.833313C22.8244 0.833313 29.1668 7.17573 29.1668 15C29.1668 22.8242 22.8244 29.1666 15.0002 29.1666C12.4966 29.1707 10.0371 28.5081 7.87435 27.2471L0.839182 29.1666ZM9.88743 8.35298C10.0773 8.33881 10.2685 8.33881 10.4583 8.34731C10.5348 8.35298 10.6113 8.36148 10.6878 8.36998C10.9131 8.39548 11.161 8.5329 11.2446 8.72273C11.6668 9.6804 12.0776 10.6451 12.4743 11.6127C12.5621 11.8281 12.5097 12.1043 12.3425 12.3735C12.2275 12.5555 12.1032 12.7314 11.9699 12.9005C11.8098 13.1059 11.4656 13.4827 11.4656 13.4827C11.4656 13.4827 11.3253 13.6499 11.3792 13.8581C11.399 13.9375 11.4642 14.0522 11.5237 14.1486L11.6073 14.2831C11.9699 14.8881 12.4573 15.5015 13.0523 16.0795C13.2223 16.2438 13.388 16.4124 13.5665 16.5696C14.2295 17.1547 14.9803 17.6321 15.7907 17.9863L15.7978 17.9891C15.9182 18.0416 15.9791 18.0699 16.1548 18.145C16.2426 18.1818 16.3333 18.2144 16.4253 18.2385C16.5205 18.2627 16.6207 18.2582 16.7133 18.2254C16.8058 18.1926 16.8866 18.133 16.9453 18.0543C17.9709 16.8119 18.0644 16.7311 18.0729 16.7311V16.734C18.1442 16.6675 18.2288 16.6171 18.3212 16.586C18.4136 16.555 18.5115 16.5441 18.6084 16.5541C18.6934 16.5597 18.7798 16.5753 18.8592 16.6107C19.6114 16.955 20.8425 17.4919 20.8425 17.4919L21.667 17.8616C21.8058 17.9282 21.9319 18.0855 21.9362 18.2371C21.9418 18.332 21.9503 18.485 21.9178 18.7655C21.8724 19.1324 21.7619 19.573 21.6514 19.8039C21.5758 19.9615 21.4753 20.1059 21.3539 20.2317C21.211 20.3818 21.0545 20.5184 20.8864 20.6397C20.8283 20.6835 20.7693 20.726 20.7094 20.7672C20.5331 20.879 20.3521 20.983 20.1668 21.0789C19.802 21.2726 19.3992 21.3839 18.9867 21.4047C18.7246 21.4189 18.4625 21.4387 18.199 21.4246C18.1877 21.4246 17.3943 21.3013 17.3943 21.3013C15.3802 20.7715 13.5175 19.7791 11.9543 18.4028C11.6342 18.1209 11.3381 17.8177 11.0349 17.516C9.7741 16.2622 8.8221 14.9093 8.2441 13.6315C7.94825 13.0043 7.78845 12.3216 7.77518 11.6283C7.76934 10.7682 8.05051 9.93067 8.57418 9.24831C8.6776 9.11515 8.77535 8.97631 8.94393 8.81623C9.12385 8.64623 9.23718 8.55556 9.36043 8.49323C9.5243 8.41111 9.70307 8.36292 9.88602 8.35156L9.88743 8.35298Z" fill="#37352F"/>
</svg>
