<svg width="800" height="800" viewBox="0 0 800 800" fill="none" xmlns="http://www.w3.org/2000/svg">
<g clip-path="url(#clip0_1_2)">
<path d="M400 0C178.4 0 0 178.4 0 400C0 621.6 178.4 800 400 800C621.6 800 800 621.6 800 400C800 178.4 621.6 0 400 0ZM493.333 144.433C497.667 144.3 501.6 148.967 499.033 153.7L397.567 339.7C397.053 340.648 396.795 341.714 396.817 342.792C396.838 343.87 397.139 344.924 397.69 345.851C398.241 346.778 399.023 347.546 399.959 348.081C400.896 348.615 401.955 348.897 403.033 348.9H578.367C584.033 348.9 586.767 355.8 582.633 359.667L275.3 646.5C269.8 651.633 261.633 644.4 266.033 638.3L411.5 437.6C412.167 436.671 412.565 435.576 412.651 434.435C412.737 433.295 412.507 432.153 411.988 431.134C411.468 430.115 410.678 429.259 409.704 428.659C408.73 428.059 407.61 427.739 406.467 427.733H220.9C219.665 427.73 218.459 427.361 217.435 426.671C216.411 425.982 215.614 425.004 215.146 423.862C214.679 422.719 214.561 421.463 214.808 420.253C215.055 419.044 215.655 417.935 216.533 417.067L489.2 146.3C490.293 145.159 491.754 144.489 493.333 144.433Z" fill="#28B5AA"/>
</g>
<defs>
<clipPath id="clip0_1_2">
<rect width="800" height="800" fill="white"/>
</clipPath>
</defs>
</svg>
